<svg width="61" height="69" viewBox="0 0 61 69" fill="none" xmlns="http://www.w3.org/2000/svg">
<path d="M48.3954 10.81C45.7361 7.81855 44.2706 3.97682 44.2717 0H32.2506V47.5333C32.1579 50.1056 31.0558 52.542 29.1764 54.3296C27.297 56.1171 24.7869 57.1163 22.1747 57.1167C16.6505 57.1167 12.06 52.67 12.06 47.15C12.06 40.5567 18.5179 35.6117 25.1703 37.6433V25.53C11.7487 23.7667 0 34.04 0 47.15C0 59.915 10.7372 69 22.1358 69C34.3514 69 44.2717 59.225 44.2717 47.15V23.0383C49.1462 26.4878 54.9987 28.3385 61 28.3283V16.4833C61 16.4833 53.6862 16.8283 48.3954 10.81Z" fill="black"/>
</svg>
