<svg width="77" height="77" viewBox="0 0 77 77" fill="none" xmlns="http://www.w3.org/2000/svg">
<path d="M38.5 0C59.7636 0 77 17.2364 77 38.5C77 59.7635 59.7636 77 38.5 77C31.6962 77.0109 25.0122 75.2104 19.1345 71.7832L0.0154541 77L5.22065 57.8732C1.79066 51.9937 -0.0113127 45.3068 5.34389e-05 38.5C5.34389e-05 17.2364 17.2365 0 38.5 0ZM25.3792 20.405L24.6092 20.4358C24.1107 20.4661 23.6236 20.5971 23.177 20.8208C22.7594 21.0573 22.3782 21.353 22.0451 21.6986C21.5831 22.1336 21.3213 22.5109 21.0403 22.8767C19.6163 24.7282 18.8495 27.0012 18.8612 29.337C18.8689 31.2235 19.3617 33.0599 20.1317 34.777C21.7063 38.2497 24.2974 41.9265 27.7162 45.3337C28.5401 46.1538 29.3486 46.9777 30.2187 47.7438C34.4667 51.484 39.529 54.1812 45.0027 55.6209L47.1895 55.9559C47.9017 55.9944 48.614 55.9405 49.3301 55.9058C50.4513 55.8479 51.5462 55.5443 52.5371 55.0165C53.0413 54.7568 53.5333 54.4741 54.0117 54.1695C54.0117 54.1695 54.1772 54.0617 54.4929 53.823C55.0127 53.438 55.3322 53.1646 55.7634 52.7142C56.083 52.3831 56.3602 51.9942 56.5719 51.5515C56.8722 50.9239 57.1725 49.7266 57.2957 48.7294C57.3881 47.9671 57.3612 47.5513 57.3496 47.2934C57.3342 46.8814 56.9916 46.4541 56.6181 46.2731L54.3774 45.2683C54.3774 45.2683 51.0279 43.8091 48.9797 42.8774C48.7654 42.7838 48.5357 42.7303 48.3021 42.7196C48.0387 42.6925 47.7726 42.7222 47.5215 42.8065C47.2705 42.8908 47.0405 43.0279 46.8468 43.2085C46.8276 43.2008 46.5696 43.4203 43.7861 46.7929C43.6263 47.0076 43.4062 47.1698 43.1539 47.2589C42.9016 47.3481 42.6284 47.3601 42.3693 47.2934C42.1185 47.2261 41.8727 47.1412 41.6339 47.0393C41.1565 46.8391 40.991 46.7621 40.6637 46.6235C38.4541 45.6592 36.4083 44.3564 34.6 42.7619C34.1149 42.3384 33.6644 41.8764 33.2024 41.4298C31.6878 39.9793 30.3678 38.3383 29.2754 36.548L29.0483 36.1823C28.8851 35.9365 28.7532 35.6714 28.6556 35.393C28.5093 34.8271 28.8904 34.3728 28.8904 34.3728C28.8904 34.3728 29.826 33.3487 30.261 32.7943C30.6845 32.2553 31.0426 31.7317 31.2736 31.3582C31.7279 30.6267 31.8703 29.876 31.6316 29.2946C30.5536 26.6612 29.4371 24.0394 28.2898 21.4368C28.0627 20.9209 27.3889 20.5513 26.7768 20.4781C26.5689 20.455 26.361 20.4319 26.1531 20.4165C25.6361 20.3909 25.118 20.396 24.6015 20.4319L25.3792 20.405Z" fill="black"/>
</svg>
